#!OML:ASF E:\Mandelcareful walks\Project 1\Capture day 1\Session 1\Subject1.ASF
:FULLY-SPECIFIED
:DEGREES
270
root -10.521 5.92629 2.95499 190.3 76.9488 114.964
lowerback 10.706 -3.98461 5.25294
upperback 6.7368 -4.43862 -1.44995
thorax 0.537541 -1.89513 -3.98732
lowerneck -20.4542 18.0656 10.8446
upperneck 28.0395 27.3474 -14.0212
head 17.3459 10.58 -1.41401
rclavicle -2.94201e-014 -4.69629e-015
rhumerus -13.3556 9.92107 -60.6268
rradius 95.7782
rwrist -27.3439
rhand -61.293 -77.317
rfingers 7.12502
rthumb -33.3819 104.236
lclavicle -2.94201e-014 -4.69629e-015
lhumerus 19.2717 -15.9736 17.1587
lradius 63.4719
lwrist 38.157
lhand -55.5044 90.4244
lfingers 7.12502
lthumb -27.8625 -62.4707
rfemur -16.2509 -10.4964 19.1968
rtibia 49.7761
rfoot -20.6147 -31.1505
rtoes 37.0357
lfemur -57.8441 40.2311 -15.8075
ltibia 91.8063
lfoot 1.19543 22.3175
ltoes 20.6683
271
root -10.5606 6.0059 2.93989 187.672 76.7048 112.869
lowerback 12.0602 -4.07837 4.48141
upperback 6.85004 -4.52683 -1.68874
thorax -0.0499782 -1.95141 -3.71959
lowerneck -20.2137 17.9951 10.7891
upperneck 27.337 27.097 -14.0889
head 16.9006 10.5419 -1.5227
rclavicle -6.36111e-015 3.2054e-014
rhumerus -13.0766 9.47837 -60.2781
rradius 95.4156
rwrist -27.7475
rhand -60.7922 -76.1261
rfingers 7.12502
rthumb -32.9056 103.146
lclavicle -6.36111e-015 3.2054e-014
lhumerus 19.914 -15.3426 17.0196
lradius 63.8804
lwrist 38.2053
lhand -55.2997 270.219
lfingers 7.12502
lthumb -27.6667 -61.796
rfemur -16.1159 -10.9178 18.3506
rtibia 50.3169
rfoot -20.2128 -31.1013
rtoes 37.4914
lfemur -58.6701 39.7661 -16.7655
ltibia 92.9639
lfoot 1.28329 23.5744
ltoes 20.1138
272
root -10.5886 6.05174 2.94095 187.791 77.5813 113.096
lowerback 12.4508 -3.72431 3.62051
upperback 7.02141 -4.12134 -1.78877
thorax 0.00726922 -1.76043 -3.3814
lowerneck -20.6305 18.1275 10.6216
upperneck 27.892 27.2536 -13.5355
head 17.1315 10.5773 -1.21187
rclavicle -4.81059e-014 9.0447e-015
rhumerus -12.6171 8.9471 -60.0872
rradius 95.0329
rwrist -28.054
rhand -60.6187 -73.5502
rfingers 7.12502
rthumb -32.7406 100.605
lclavicle -4.81059e-014 9.0447e-015
lhumerus 20.519 -14.606 16.6949
lradius 64.2088
lwrist 38.1542
lhand -55.2077 270.691
lfingers 7.12502
lthumb -27.5788 -61.3101
rfemur -16.5372 -10.2365 18.2688
rtibia 50.6824
rfoot -19.2347 -30.8327
rtoes 36.3422
lfemur -59.6575 41.1252 -17.1326
ltibia 93.9354
lfoot 1.01161 23.7494
ltoes 18.6525
273
root -10.617 6.09773 2.91867 189.767 78.5247 115.15
lowerback 12.678 -3.38789 3.37326
upperback 7.19521 -3.69226 -1.87365
thorax 0.114158 -1.54508 -3.38346
lowerneck -20.4167 18.1608 10.5046
upperneck 27.0658 27.2501 -13.8692
head 16.7285 10.6042 -1.34531
rclavicle -4.69132e-014 -9.28821e-014
rhumerus -12.0669 8.53553 -59.7515
rradius 94.5751
rwrist -28.6716
rhand -60.7689 -73.4463
rfingers 7.12502
rthumb -32.8835 100.471
lclavicle -4.69132e-014 -9.28821e-014
lhumerus 21.2176 -13.8818 16.2927
lradius 64.4675
lwrist 38.2135
lhand -55.2714 271.63
lfingers 7.12502
lthumb -27.6397 -60.3807
rfemur -17.0115 -9.39635 18.4292
rtibia 50.9248
rfoot -18.7341 -30.6647
rtoes 35.5912
lfemur -60.6142 42.3978 -17.1196
ltibia 94.8002
lfoot 1.43427 22.7997
ltoes 21.8866
274
root -10.6317 6.14852 2.83893 188.657 78.24 115.194
lowerback 14.0338 -3.66724 3.73362
upperback 7.57264 -3.91567 -2.21084
thorax -0.272933 -1.61715 -3.85613
lowerneck -20.7119 18.203 10.2614
upperneck 27.234 27.2624 -13.4658
head 16.7375 10.6018 -1.13582
rclavicle 6.36111e-015 -5.84924e-014
rhumerus -11.6871 8.32032 -59.2657
rradius 93.9228
rwrist -29.4609
rhand -60.6979 -74.6119
rfingers 7.12502
rthumb -32.816 101.651
lclavicle 6.36111e-015 -5.84924e-014
lhumerus 21.8973 -13.2884 16.0631
lradius 64.5982
lwrist 37.8931
lhand -55.1019 272.647
lfingers 7.12502
lthumb -27.4776 -59.337
rfemur -15.9357 -10.0859 17.7419
rtibia 51.1389
rfoot -18.4129 -30.3528
rtoes 35.1701
lfemur -59.7146 41.8202 -16.6435
ltibia 95.4325
lfoot 1.49866 22.9648
ltoes 22.5435
275
root -10.6637 6.21714 2.8011 189.188 78.1676 116.109
lowerback 14.858 -3.77945 3.72408
upperback 7.69491 -4.00749 -2.38574
thorax -0.599714 -1.65207 -3.98576
lowerneck -20.7076 18.2107 10.1744
upperneck 26.9049 27.2535 -13.5664
head 16.581 10.6035 -1.1683
rclavicle -3.73715e-014 2.68359e-014
rhumerus -11.1658 7.9468 -58.9533
rradius 93.1853
rwrist -29.8474
rhand -60.0649 -72.8782
rfingers 7.12502
rthumb -32.2136 100.041
lclavicle -3.73715e-014 2.68359e-014
lhumerus 22.7134 -12.662 15.4961
lradius 64.6458
lwrist 37.8419
lhand -54.8001 273.764
lfingers 7.12502
lthumb -27.189 -58.1752
rfemur -15.9879 -10.9922 17.5676
rtibia 51.4681
rfoot -17.5253 -30.0533
rtoes 34.5065
lfemur -60.1308 41.5413 -16.5157
ltibia 95.9794
lfoot 2.20832 23.0513
ltoes 23.2633
276
root -10.746 6.29354 2.81208 192.207 78.2971 118.505
lowerback 14.759 -3.62012 3.34878
upperback 7.58576 -3.86068 -2.29956
thorax -0.620982 -1.5975 -3.70873
lowerneck -20.9278 18.2464 10.1072
upperneck 26.8618 27.3292 -13.629
head 16.6216 10.6049 -1.14552
rclavicle -5.24792e-014 -9.77524e-014
rhumerus -10.3643 7.39622 -58.7242
rradius 92.4308
rwrist -30.1499
rhand -59.4538 -71.6472
rfingers 7.12502
rthumb -31.6317 98.9263
lclavicle -5.24792e-014 -9.77524e-014
lhumerus 23.4945 -11.8407 15.236
lradius 64.8482
lwrist 37.8207
lhand -54.6139 275.387
lfingers 7.12502
lthumb -27.0108 -56.5245
rfemur -17.509 -10.6849 18.387
rtibia 52.0638
rfoot -17.5472 -30.1568
rtoes 35.1374
lfemur -62.3967 41.5549 -16.6704
ltibia 96.637
lfoot 3.52629 23.301
ltoes 25.5236
277
root -10.7929 6.3366 2.79591 193.031 79.5559 119.755
lowerback 15.38 -3.12663 2.51189
upperback 7.70413 -3.30118 -2.50223
thorax -0.741002 -1.33313 -3.51959
lowerneck -20.7806 18.2819 10.1144
upperneck 26.5299 27.3759 -13.8226
head 16.4809 10.6349 -1.21998
rclavicle 6.95746e-014 6.75868e-014
rhumerus -9.78485 7.3321 -58.4735
rradius 91.4383
rwrist -30.491
rhand -59.544 -72.12
rfingers 7.12502
rthumb -31.7176 99.3822
lclavicle 6.95746e-014 6.75868e-014
lhumerus 24.1689 -11.2949 14.8805
lradius 65.0976
lwrist 37.8575
lhand -54.5601 276.221
lfingers 7.12502
lthumb -26.9594 -55.6823
rfemur -17.735 -9.74415 18.3187
rtibia 52.6684
rfoot -17.2674 -30.4774
rtoes 35.436
lfemur -61.9059 42.7081 -15.922
ltibia 97.0044
lfoot 4.27221 22.567
ltoes 27.2456
278
root -10.8456 6.42081 2.72161 190.628 78.5862 117.6
lowerback 16.1972 -3.5825 2.65662
upperback 7.62991 -3.83853 -2.77445
thorax -1.31824 -1.58828 -3.76187
lowerneck -20.4316 18.276 10.2493
upperneck 26.3549 27.4092 -14.0941
head 16.4138 10.6621 -1.35848
rclavicle -7.95139e-016 -2.99171e-014
rhumerus -9.58702 7.46907 -58.0982
rradius 90.29
rwrist -30.3272
rhand -60.3368 -72.6694
rfingers 7.12502
rthumb -32.4724 99.7794
lclavicle -7.95139e-016 -2.99171e-014
lhumerus 24.8616 -10.9582 14.796
lradius 65.1894
lwrist 37.6937
lhand -54.5922 276.569
lfingers 7.12502
lthumb -26.9901 -55.339
rfemur -17.9248 -11.2691 17.5592
rtibia 53.2619
rfoot -17.2386 -30.7572
rtoes 35.0624
lfemur -62.3277 40.6665 -16.5531
ltibia 97.3419
lfoot 4.50632 22.7187
ltoes 28.1537
